<svg width="32" height="32" viewBox="0 0 32 32" fill="none" xmlns="http://www.w3.org/2000/svg">
<path d="M9 17H11V21H9V17Z" fill="black"/>
<path d="M10 20H12V23H10V20Z" fill="black"/>
<path d="M2 1H3V2H4V3H3V10V11V17H4V19H3V18H2V16H1V9H2V1Z" fill="black"/>
<path d="M5 18H7V20H4V19H5V18Z" fill="black"/>
<path d="M12 16H13V17H12V16Z" fill="black"/>
<path d="M7 10H8V11H7V10Z" fill="black"/>
<path d="M6 9H7V10H6V9Z" fill="black"/>
<path d="M9 13H10V14H11V15H10V16H9V13Z" fill="black"/>
<path d="M5 4H6V5H5V4Z" fill="black"/>
<path d="M6 5H7V6H6V5Z" fill="black"/>
<path d="M7 6H8V7H7V6Z" fill="black"/>
<path d="M8 7H10V8H8V7Z" fill="black"/>
<path d="M9 8H11V9H9V8Z" fill="black"/>
<path d="M10 9H12V10H10V9Z" fill="black"/>
<path d="M11 10H13V11H11V10Z" fill="black"/>
<path d="M12 11H13V12H12V11Z" fill="black"/>
<path d="M13 12H14V16H13V12Z" fill="black"/>
<path fill-rule="evenodd" clip-rule="evenodd" d="M4 3H3V10H2V11H3V19H5H9V18H10V17H12V16H13V12H12V11H11V10H10V9H9V8H8V7H7V6H6V5H5V4H4V3Z" fill="black"/>
<path d="M5 3H4V4H5V3Z" fill="black"/>
<rect x="8" y="16" width="2" height="4" fill="#4D674D"/>
<rect x="9" y="19" width="2" height="3" fill="#4D674D"/>
<path d="M2 2H4V4H5V5H6V6H7V7H8V8H9V9H10V10H11V11H12V15H11V16H9V17H8V18H4H2V10H1V9H2V2Z" fill="#69926A"/>
<path d="M1 0H2V1H3V2H2V9V10V16H3V18H2V17H1V15H0V8H1V0Z" fill="#476348"/>
<path d="M4 17H6V19H3V18H4V17Z" fill="#476348"/>
<rect x="3" y="2" width="1" height="1" fill="#476348"/>
<rect x="11" y="15" width="1" height="1" fill="#476348"/>
<rect x="6" y="9" width="1" height="1" fill="#476348"/>
<rect x="5" y="8" width="1" height="1" fill="#476348"/>
<path d="M8 12H9V13H10V14H9V15H8V12Z" fill="#476348"/>
<rect x="4" y="3" width="1" height="1" fill="#98CB99"/>
<rect x="5" y="4" width="1" height="1" fill="#98CB99"/>
<rect x="6" y="5" width="1" height="1" fill="#98CB99"/>
<rect x="7" y="6" width="2" height="1" fill="#98CB99"/>
<rect x="8" y="7" width="2" height="1" fill="#98CB99"/>
<rect x="9" y="8" width="2" height="1" fill="#98CB99"/>
<rect x="10" y="9" width="2" height="1" fill="#98CB99"/>
<rect x="11" y="10" width="1" height="1" fill="#98CB99"/>
<rect x="12" y="11" width="1" height="4" fill="#98CB99"/>
</svg>
